<svg width="152" height="52" viewBox="0 0 152 52" fill="none" xmlns="http://www.w3.org/2000/svg">
<rect x="1" y="1" width="150" height="50" rx="8" fill="white"/>
<rect x="1" y="1" width="150" height="50" rx="8" stroke="#EBEFF6"/>
<path d="M89.0095 38.9609C83.2244 43.225 74.8394 45.5 67.62 45.5C57.4973 45.5 48.3842 41.756 41.4898 35.5289C40.9482 35.0392 41.4335 34.3719 42.0835 34.7532C49.5239 39.0823 58.7236 41.6866 68.2267 41.6866C74.6357 41.6866 81.6861 40.3606 88.1688 37.6089C89.1482 37.1929 89.9672 38.2503 89.0095 38.9609Z" fill="#FF9900"/>
<path d="M91.4146 36.2091C90.6779 35.2644 86.5265 35.7628 84.6632 35.9838C84.0955 36.0531 84.0088 35.5591 84.5202 35.2038C87.8265 32.8768 93.2519 33.5484 93.8846 34.3284C94.5172 35.1128 93.7199 40.5512 90.6129 43.1468C90.1362 43.5455 89.6812 43.3332 89.8935 42.8045C90.5912 41.0625 92.1556 37.1581 91.4146 36.2091Z" fill="#FF9900"/>
<path d="M84.793 18.776V16.514C84.793 16.1716 85.053 15.942 85.365 15.942H95.4921C95.8171 15.942 96.0771 16.176 96.0771 16.514V18.451C96.0728 18.776 95.7998 19.2007 95.3144 19.8723L90.0667 27.3647C92.0167 27.3171 94.0751 27.6074 95.8431 28.6041C96.2418 28.8294 96.3501 29.1587 96.3804 29.4837V31.8974C96.3804 32.2268 96.0164 32.6124 95.6351 32.4131C92.5194 30.7794 88.381 30.6018 84.936 32.4304C84.585 32.6211 84.2167 32.2398 84.2167 31.9104V29.6181C84.2167 29.2497 84.221 28.6214 84.5894 28.0624L90.6691 19.3437H85.378C85.053 19.3437 84.793 19.114 84.793 18.776Z" fill="#221F1F"/>
<path d="M47.8506 32.8899H44.7696C44.4749 32.8682 44.2409 32.6472 44.2193 32.3656V16.5531C44.2193 16.2367 44.4836 15.9854 44.8129 15.9854H47.686C47.985 15.9984 48.2233 16.2281 48.245 16.5141V18.5811H48.3013C49.051 16.5834 50.4593 15.6517 52.3573 15.6517C54.2857 15.6517 55.4903 16.5834 56.357 18.5811C57.1024 16.5834 58.7967 15.6517 60.6124 15.6517C61.9037 15.6517 63.3164 16.1847 64.1787 17.3807C65.1537 18.7111 64.9544 20.6438 64.9544 22.3381L64.9501 32.3179C64.9501 32.6342 64.6857 32.8899 64.3564 32.8899H61.2797C60.9721 32.8682 60.7251 32.6212 60.7251 32.3179V23.9371C60.7251 23.2698 60.7857 21.6058 60.6384 20.9731C60.4087 19.9114 59.7197 19.6124 58.827 19.6124C58.0817 19.6124 57.3017 20.1108 56.9854 20.9081C56.669 21.7055 56.6994 23.0401 56.6994 23.9371V32.3179C56.6994 32.6342 56.435 32.8899 56.1057 32.8899H53.029C52.717 32.8682 52.4743 32.6212 52.4743 32.3179L52.47 23.9371C52.47 22.1735 52.7603 19.5778 50.572 19.5778C48.3576 19.5778 48.4443 22.1085 48.4443 23.9371V32.3179C48.4443 32.6342 48.18 32.8899 47.8506 32.8899Z" fill="#221F1F"/>
<path d="M104.795 15.6517C109.367 15.6517 111.842 19.5778 111.842 24.5698C111.842 29.3929 109.107 33.2192 104.795 33.2192C100.306 33.2192 97.8621 29.2932 97.8621 24.4008C97.8621 19.4781 100.336 15.6517 104.795 15.6517ZM104.821 18.8801C102.551 18.8801 102.408 21.9741 102.408 23.9025C102.408 25.8352 102.377 29.9605 104.795 29.9605C107.183 29.9605 107.296 26.6325 107.296 24.6045C107.296 23.2698 107.24 21.6751 106.836 20.4098C106.49 19.3091 105.801 18.8801 104.821 18.8801Z" fill="#221F1F"/>
<path d="M117.769 32.8899H114.701C114.394 32.8682 114.147 32.6212 114.147 32.3179L114.142 16.5011C114.168 16.2107 114.424 15.9854 114.736 15.9854H117.592C117.86 15.9984 118.081 16.1804 118.142 16.4274V18.8454H118.198C119.061 16.6831 120.27 15.6517 122.397 15.6517C123.78 15.6517 125.128 16.1501 125.994 17.5151C126.8 18.7804 126.8 20.9081 126.8 22.4378V32.3916C126.766 32.6689 126.51 32.8899 126.207 32.8899H123.117C122.835 32.8682 122.601 32.6602 122.571 32.3916V23.8028C122.571 22.0738 122.77 19.5431 120.642 19.5431C119.893 19.5431 119.204 20.0458 118.861 20.8084C118.428 21.7748 118.372 22.7368 118.372 23.8028V32.3179C118.367 32.6342 118.099 32.8899 117.769 32.8899Z" fill="#221F1F"/>
<path d="M76.7197 25.3368V24.6694C74.4923 24.6694 72.1393 25.1461 72.1393 27.7721C72.1393 29.1025 72.8283 30.0038 74.0113 30.0038C74.878 30.0038 75.6537 29.4708 76.1433 28.6041C76.75 27.5381 76.7197 26.5371 76.7197 25.3368ZM79.8267 32.8465C79.623 33.0285 79.3284 33.0415 79.0987 32.9202C78.076 32.0708 77.894 31.6765 77.3307 30.8661C75.6407 32.5908 74.4447 33.1065 72.252 33.1065C69.6606 33.1065 67.6413 31.5075 67.6413 28.3051C67.6413 25.8048 68.9976 24.1017 70.926 23.2697C72.5986 22.5331 74.9343 22.4031 76.7197 22.1994V21.8007C76.7197 21.0684 76.776 20.2017 76.347 19.569C75.97 19.0014 75.2507 18.7674 74.618 18.7674C73.4436 18.7674 72.395 19.3697 72.1393 20.6177C72.0873 20.8951 71.8836 21.1681 71.6063 21.1811L68.6163 20.8604C68.3649 20.8041 68.0876 20.6004 68.1569 20.2147C68.8459 16.592 72.1176 15.5 75.047 15.5C76.5463 15.5 78.505 15.8987 79.688 17.034C81.1874 18.4337 81.0444 20.3014 81.0444 22.3337V27.1351C81.0444 28.5781 81.6424 29.2108 82.2057 29.9908C82.405 30.2681 82.4484 30.6018 82.197 30.8098C81.5687 31.3341 80.4507 32.3092 79.8354 32.8552L79.8267 32.8465Z" fill="#221F1F"/>
<path d="M36.3284 25.3368V24.6694C34.101 24.6694 31.748 25.1461 31.748 27.7721C31.748 29.1025 32.437 30.0038 33.62 30.0038C34.4867 30.0038 35.2624 29.4708 35.7521 28.6041C36.3587 27.5381 36.3284 26.5371 36.3284 25.3368ZM39.4354 32.8465C39.2317 33.0285 38.9371 33.0415 38.7074 32.9202C37.6847 32.0708 37.5027 31.6765 36.9394 30.8661C35.2494 32.5908 34.0534 33.1065 31.8607 33.1065C29.2693 33.1065 27.25 31.5075 27.25 28.3051C27.25 25.8048 28.6063 24.1017 30.5347 23.2697C32.2074 22.5331 34.543 22.4031 36.3284 22.1994V21.8007C36.3284 21.0684 36.3847 20.2017 35.9557 19.569C35.5787 19.0014 34.8594 18.7674 34.2267 18.7674C33.0524 18.7674 32.0037 19.3697 31.748 20.6177C31.696 20.8951 31.4924 21.1681 31.215 21.1811L28.225 20.8604C27.9737 20.8041 27.6963 20.6004 27.7657 20.2147C28.4547 16.592 31.7264 15.5 34.6557 15.5C36.1551 15.5 38.1137 15.8987 39.2967 17.034C40.7961 18.4337 40.6531 20.3014 40.6531 22.3337V27.1351C40.6531 28.5781 41.2511 29.2108 41.8144 29.9908C42.0138 30.2681 42.0571 30.6018 41.8058 30.8098C41.1774 31.3341 40.0594 32.3092 39.4441 32.8552L39.4354 32.8465Z" fill="#221F1F"/>
</svg>
