<svg width="150" height="50" viewBox="0 0 150 50" fill="none" xmlns="http://www.w3.org/2000/svg">
<rect x="0.5" y="0.5" width="149" height="49" rx="7.5" fill="white"/>
<rect x="0.5" y="0.5" width="149" height="49" rx="7.5" stroke="#EBEFF6"/>
<path d="M116.607 29.9686C116.528 29.9719 116.452 30.0005 116.391 30.0501C116.329 30.0997 116.285 30.1678 116.265 30.2443C115.402 32.7058 114.237 34.1723 113.277 34.1723C112.726 34.1723 112.503 33.5576 112.503 32.5928C112.503 30.1809 113.947 25.0675 114.675 22.7355C114.755 22.4932 114.802 22.2409 114.813 21.9858C114.813 21.3077 114.443 20.9741 113.525 20.9741C112.536 20.9741 111.472 21.36 110.435 23.1793C110.077 21.5805 108.996 20.8804 107.483 20.8804C105.735 20.8804 104.049 22.0051 102.659 23.8271C101.27 25.6492 99.6271 26.2473 98.4088 25.9524C99.2936 23.7885 99.6216 22.1732 99.6216 20.9714C99.6216 19.0887 98.6927 17.953 97.1876 17.953C94.9025 17.953 93.5849 20.1334 93.5849 22.4268C93.5849 24.1992 94.3898 26.0103 96.1567 26.9061C94.6737 30.258 92.5126 33.2874 91.6912 33.2874C90.6299 33.2874 90.3129 28.0969 90.3791 24.3839C90.4177 22.2531 90.5941 22.1456 90.5941 21.5006C90.5941 21.1312 90.3543 20.8776 89.3895 20.8776C87.143 20.8776 86.4483 22.7796 86.3408 24.9655C86.3072 25.7955 86.1777 26.6187 85.9549 27.4188C85.015 30.7707 83.0799 33.3122 81.8202 33.3122C81.2358 33.3122 81.0759 32.7279 81.0759 31.9616C81.0759 29.5496 82.4266 26.5368 82.4266 23.9677C82.4266 22.0767 81.5997 20.8832 80.0367 20.8832C78.1982 20.8832 75.7642 23.0718 73.4625 27.1735C74.2206 24.0338 74.532 20.9934 72.2882 20.9934C71.802 21.0004 71.3246 21.1243 70.8962 21.3545C70.7522 21.4218 70.6318 21.5309 70.5507 21.6675C70.4695 21.8042 70.4314 21.9622 70.4414 22.1208C70.6564 25.4645 67.7483 34.0262 64.9891 34.0262C64.4874 34.0262 64.2448 33.4749 64.2448 32.6066C64.2448 30.1891 65.6837 25.0896 66.4087 22.7521C66.4947 22.4967 66.5429 22.2302 66.552 21.961C66.552 21.3214 66.1551 20.9934 65.2592 20.9934C64.2751 20.9934 63.2056 21.3683 62.1747 23.1821C61.8136 21.5833 60.7303 20.8832 59.2197 20.8832C56.7389 20.8832 53.9824 23.5046 52.753 26.9227C51.1239 31.4847 47.8409 35.8923 43.4195 35.8923C39.4088 35.8923 37.2919 32.5542 37.2919 27.281C37.2919 19.6648 42.882 13.4433 47.0278 13.4433C49.0097 13.4433 49.9579 14.7058 49.9579 16.6436C49.9579 18.9894 48.6486 20.0782 48.6486 20.9714C48.6486 21.247 48.8746 21.5227 49.3267 21.5227C51.1294 21.5227 53.2492 19.4057 53.2492 16.5168C53.2492 13.628 50.8979 11.5 46.7494 11.5C39.8967 11.5 33 18.3913 33 27.2314C33 34.2605 36.4677 38.5 42.4658 38.5C46.5564 38.5 50.1316 35.319 52.0584 31.6087C52.2761 34.685 53.6737 36.2948 55.8044 36.2948C57.6982 36.2948 59.2308 35.1674 60.4023 33.1827C60.8516 35.2583 62.0562 36.2727 63.6025 36.2727C65.3832 36.2727 66.8745 35.1453 68.2886 33.0476C68.2665 34.7015 68.6414 36.2424 70.0693 36.2424C70.7419 36.2424 71.5468 36.0853 71.6901 35.4982C73.1924 29.285 76.9054 24.213 78.03 24.213C78.3663 24.213 78.46 24.5383 78.46 24.9214C78.46 26.6084 77.2692 30.0706 77.2692 32.2786C77.2692 34.6657 78.2836 36.2452 80.3813 36.2452C82.705 36.2452 85.0673 33.4005 86.6413 29.2409C87.1347 33.1276 88.1987 36.2617 89.8664 36.2617C91.9117 36.2617 95.5448 31.956 97.7472 27.3968C98.9423 27.5727 100.16 27.2869 101.151 26.5974C100.606 27.9593 100.321 29.4113 100.311 30.8782C100.311 35.1095 102.331 36.2948 104.071 36.2948C105.962 36.2948 107.494 35.1674 108.668 33.1827C109.054 34.9717 110.047 36.2672 111.863 36.2672C114.708 36.2672 117.18 33.3591 117.18 30.972C117.191 30.3435 116.921 29.9686 116.607 29.9686ZM57.5438 33.9518C56.3943 33.9518 55.945 32.794 55.945 31.0684C55.945 28.0721 57.9959 23.0746 60.1625 23.0746C61.1107 23.0746 61.4663 24.1772 61.4663 25.5554C61.4663 28.5903 59.5174 33.9518 57.5438 33.9518ZM96.9065 25.0069C96.2682 24.1715 95.9381 23.1413 95.972 22.0905C95.972 20.8694 96.4186 19.8384 96.9533 19.8384C97.4881 19.8384 97.6535 20.3649 97.6535 21.0982C97.6507 22.3221 97.2124 24.111 96.9065 25.0069ZM105.818 33.9518C104.669 33.9518 104.219 32.6204 104.219 31.0684C104.219 28.1769 106.27 23.0746 108.453 23.0746C109.402 23.0746 109.738 24.1772 109.738 25.5554C109.738 28.5903 107.822 33.9518 105.818 33.9518Z" fill="url(#paint0_linear_8_541)"/>
<path d="M116.607 29.9686C116.528 29.9719 116.452 30.0005 116.391 30.0501C116.329 30.0997 116.285 30.1678 116.265 30.2443C115.402 32.7058 114.237 34.1723 113.277 34.1723C112.726 34.1723 112.503 33.5576 112.503 32.5928C112.503 30.1809 113.947 25.0675 114.675 22.7355C114.755 22.4932 114.802 22.2409 114.813 21.9858C114.813 21.3077 114.443 20.9741 113.525 20.9741C112.536 20.9741 111.472 21.36 110.435 23.1793C110.077 21.5805 108.996 20.8804 107.483 20.8804C105.735 20.8804 104.049 22.0051 102.659 23.8271C101.27 25.6492 99.6271 26.2473 98.4088 25.9524C99.2936 23.7885 99.6216 22.1732 99.6216 20.9714C99.6216 19.0887 98.6927 17.953 97.1876 17.953C94.9025 17.953 93.5849 20.1334 93.5849 22.4268C93.5849 24.1992 94.3898 26.0103 96.1567 26.9061C94.6737 30.258 92.5126 33.2874 91.6912 33.2874C90.6299 33.2874 90.3129 28.0969 90.3791 24.3839C90.4177 22.2531 90.5941 22.1456 90.5941 21.5006C90.5941 21.1312 90.3543 20.8776 89.3895 20.8776C87.143 20.8776 86.4483 22.7796 86.3408 24.9655C86.3072 25.7955 86.1777 26.6187 85.9549 27.4188C85.015 30.7707 83.0799 33.3122 81.8202 33.3122C81.2358 33.3122 81.0759 32.7279 81.0759 31.9616C81.0759 29.5496 82.4266 26.5368 82.4266 23.9677C82.4266 22.0767 81.5997 20.8832 80.0367 20.8832C78.1982 20.8832 75.7642 23.0718 73.4625 27.1735C74.2206 24.0338 74.532 20.9934 72.2882 20.9934C71.802 21.0004 71.3246 21.1243 70.8962 21.3545C70.7522 21.4218 70.6318 21.5309 70.5507 21.6675C70.4695 21.8042 70.4314 21.9622 70.4414 22.1208C70.6564 25.4645 67.7483 34.0262 64.9891 34.0262C64.4874 34.0262 64.2448 33.4749 64.2448 32.6066C64.2448 30.1891 65.6837 25.0896 66.4087 22.7521C66.4947 22.4967 66.5429 22.2302 66.552 21.961C66.552 21.3214 66.1551 20.9934 65.2592 20.9934C64.2751 20.9934 63.2056 21.3683 62.1747 23.1821C61.8136 21.5833 60.7303 20.8832 59.2197 20.8832C56.7389 20.8832 53.9824 23.5046 52.753 26.9227C51.1239 31.4847 47.8409 35.8923 43.4195 35.8923C39.4088 35.8923 37.2919 32.5542 37.2919 27.281C37.2919 19.6648 42.882 13.4433 47.0278 13.4433C49.0097 13.4433 49.9579 14.7058 49.9579 16.6436C49.9579 18.9894 48.6486 20.0782 48.6486 20.9714C48.6486 21.247 48.8746 21.5227 49.3267 21.5227C51.1294 21.5227 53.2492 19.4057 53.2492 16.5168C53.2492 13.628 50.8979 11.5 46.7494 11.5C39.8967 11.5 33 18.3913 33 27.2314C33 34.2605 36.4677 38.5 42.4658 38.5C46.5564 38.5 50.1316 35.319 52.0584 31.6087C52.2761 34.685 53.6737 36.2948 55.8044 36.2948C57.6982 36.2948 59.2308 35.1674 60.4023 33.1827C60.8516 35.2583 62.0562 36.2727 63.6025 36.2727C65.3832 36.2727 66.8745 35.1453 68.2886 33.0476C68.2665 34.7015 68.6414 36.2424 70.0693 36.2424C70.7419 36.2424 71.5468 36.0853 71.6901 35.4982C73.1924 29.285 76.9054 24.213 78.03 24.213C78.3663 24.213 78.46 24.5383 78.46 24.9214C78.46 26.6084 77.2692 30.0706 77.2692 32.2786C77.2692 34.6657 78.2836 36.2452 80.3813 36.2452C82.705 36.2452 85.0673 33.4005 86.6413 29.2409C87.1347 33.1276 88.1987 36.2617 89.8664 36.2617C91.9117 36.2617 95.5448 31.956 97.7472 27.3968C98.9423 27.5727 100.16 27.2869 101.151 26.5974C100.606 27.9593 100.321 29.4113 100.311 30.8782C100.311 35.1095 102.331 36.2948 104.071 36.2948C105.962 36.2948 107.494 35.1674 108.668 33.1827C109.054 34.9717 110.047 36.2672 111.863 36.2672C114.708 36.2672 117.18 33.3591 117.18 30.972C117.191 30.3435 116.921 29.9686 116.607 29.9686ZM57.5438 33.9518C56.3943 33.9518 55.945 32.794 55.945 31.0684C55.945 28.0721 57.9959 23.0746 60.1625 23.0746C61.1107 23.0746 61.4663 24.1772 61.4663 25.5554C61.4663 28.5903 59.5174 33.9518 57.5438 33.9518ZM96.9065 25.0069C96.2682 24.1715 95.9381 23.1413 95.972 22.0905C95.972 20.8694 96.4186 19.8384 96.9533 19.8384C97.4881 19.8384 97.6535 20.3649 97.6535 21.0982C97.6507 22.3221 97.2124 24.111 96.9065 25.0069ZM105.818 33.9518C104.669 33.9518 104.219 32.6204 104.219 31.0684C104.219 28.1769 106.27 23.0746 108.453 23.0746C109.402 23.0746 109.738 24.1772 109.738 25.5554C109.738 28.5903 107.822 33.9518 105.818 33.9518Z" fill="url(#paint1_radial_8_541)"/>
<path d="M116.607 29.9686C116.528 29.9719 116.452 30.0005 116.391 30.0501C116.329 30.0997 116.285 30.1678 116.265 30.2443C115.402 32.7058 114.237 34.1723 113.277 34.1723C112.726 34.1723 112.503 33.5576 112.503 32.5928C112.503 30.1809 113.947 25.0675 114.675 22.7355C114.755 22.4932 114.802 22.2409 114.813 21.9858C114.813 21.3077 114.443 20.9741 113.525 20.9741C112.536 20.9741 111.472 21.36 110.435 23.1793C110.077 21.5805 108.996 20.8804 107.483 20.8804C105.735 20.8804 104.049 22.0051 102.659 23.8271C101.27 25.6492 99.6271 26.2473 98.4088 25.9524C99.2936 23.7885 99.6216 22.1732 99.6216 20.9714C99.6216 19.0887 98.6927 17.953 97.1876 17.953C94.9025 17.953 93.5849 20.1334 93.5849 22.4268C93.5849 24.1992 94.3898 26.0103 96.1567 26.9061C94.6737 30.258 92.5126 33.2874 91.6912 33.2874C90.6299 33.2874 90.3129 28.0969 90.3791 24.3839C90.4177 22.2531 90.5941 22.1456 90.5941 21.5006C90.5941 21.1312 90.3543 20.8776 89.3895 20.8776C87.143 20.8776 86.4483 22.7796 86.3408 24.9655C86.3072 25.7955 86.1777 26.6187 85.9549 27.4188C85.015 30.7707 83.0799 33.3122 81.8202 33.3122C81.2358 33.3122 81.0759 32.7279 81.0759 31.9616C81.0759 29.5496 82.4266 26.5368 82.4266 23.9677C82.4266 22.0767 81.5997 20.8832 80.0367 20.8832C78.1982 20.8832 75.7642 23.0718 73.4625 27.1735C74.2206 24.0338 74.532 20.9934 72.2882 20.9934C71.802 21.0004 71.3246 21.1243 70.8962 21.3545C70.7522 21.4218 70.6318 21.5309 70.5507 21.6675C70.4695 21.8042 70.4314 21.9622 70.4414 22.1208C70.6564 25.4645 67.7483 34.0262 64.9891 34.0262C64.4874 34.0262 64.2448 33.4749 64.2448 32.6066C64.2448 30.1891 65.6837 25.0896 66.4087 22.7521C66.4947 22.4967 66.5429 22.2302 66.552 21.961C66.552 21.3214 66.1551 20.9934 65.2592 20.9934C64.2751 20.9934 63.2056 21.3683 62.1747 23.1821C61.8136 21.5833 60.7303 20.8832 59.2197 20.8832C56.7389 20.8832 53.9824 23.5046 52.753 26.9227C51.1239 31.4847 47.8409 35.8923 43.4195 35.8923C39.4088 35.8923 37.2919 32.5542 37.2919 27.281C37.2919 19.6648 42.882 13.4433 47.0278 13.4433C49.0097 13.4433 49.9579 14.7058 49.9579 16.6436C49.9579 18.9894 48.6486 20.0782 48.6486 20.9714C48.6486 21.247 48.8746 21.5227 49.3267 21.5227C51.1294 21.5227 53.2492 19.4057 53.2492 16.5168C53.2492 13.628 50.8979 11.5 46.7494 11.5C39.8967 11.5 33 18.3913 33 27.2314C33 34.2605 36.4677 38.5 42.4658 38.5C46.5564 38.5 50.1316 35.319 52.0584 31.6087C52.2761 34.685 53.6737 36.2948 55.8044 36.2948C57.6982 36.2948 59.2308 35.1674 60.4023 33.1827C60.8516 35.2583 62.0562 36.2727 63.6025 36.2727C65.3832 36.2727 66.8745 35.1453 68.2886 33.0476C68.2665 34.7015 68.6414 36.2424 70.0693 36.2424C70.7419 36.2424 71.5468 36.0853 71.6901 35.4982C73.1924 29.285 76.9054 24.213 78.03 24.213C78.3663 24.213 78.46 24.5383 78.46 24.9214C78.46 26.6084 77.2692 30.0706 77.2692 32.2786C77.2692 34.6657 78.2836 36.2452 80.3813 36.2452C82.705 36.2452 85.0673 33.4005 86.6413 29.2409C87.1347 33.1276 88.1987 36.2617 89.8664 36.2617C91.9117 36.2617 95.5448 31.956 97.7472 27.3968C98.9423 27.5727 100.16 27.2869 101.151 26.5974C100.606 27.9593 100.321 29.4113 100.311 30.8782C100.311 35.1095 102.331 36.2948 104.071 36.2948C105.962 36.2948 107.494 35.1674 108.668 33.1827C109.054 34.9717 110.047 36.2672 111.863 36.2672C114.708 36.2672 117.18 33.3591 117.18 30.972C117.191 30.3435 116.921 29.9686 116.607 29.9686ZM57.5438 33.9518C56.3943 33.9518 55.945 32.794 55.945 31.0684C55.945 28.0721 57.9959 23.0746 60.1625 23.0746C61.1107 23.0746 61.4663 24.1772 61.4663 25.5554C61.4663 28.5903 59.5174 33.9518 57.5438 33.9518ZM96.9065 25.0069C96.2682 24.1715 95.9381 23.1413 95.972 22.0905C95.972 20.8694 96.4186 19.8384 96.9533 19.8384C97.4881 19.8384 97.6535 20.3649 97.6535 21.0982C97.6507 22.3221 97.2124 24.111 96.9065 25.0069ZM105.818 33.9518C104.669 33.9518 104.219 32.6204 104.219 31.0684C104.219 28.1769 106.27 23.0746 108.453 23.0746C109.402 23.0746 109.738 24.1772 109.738 25.5554C109.738 28.5903 107.822 33.9518 105.818 33.9518Z" fill="url(#paint2_radial_8_541)"/>
<path d="M116.607 29.9686C116.528 29.9719 116.452 30.0005 116.391 30.0501C116.329 30.0997 116.285 30.1678 116.265 30.2443C115.402 32.7058 114.237 34.1723 113.277 34.1723C112.726 34.1723 112.503 33.5576 112.503 32.5928C112.503 30.1809 113.947 25.0675 114.675 22.7355C114.755 22.4932 114.802 22.2409 114.813 21.9858C114.813 21.3077 114.443 20.9741 113.525 20.9741C112.536 20.9741 111.472 21.36 110.435 23.1793C110.077 21.5805 108.996 20.8804 107.483 20.8804C105.735 20.8804 104.049 22.0051 102.659 23.8271C101.27 25.6492 99.6271 26.2473 98.4088 25.9524C99.2936 23.7885 99.6216 22.1732 99.6216 20.9714C99.6216 19.0887 98.6927 17.953 97.1876 17.953C94.9025 17.953 93.5849 20.1334 93.5849 22.4268C93.5849 24.1992 94.3898 26.0103 96.1567 26.9061C94.6737 30.258 92.5126 33.2874 91.6912 33.2874C90.6299 33.2874 90.3129 28.0969 90.3791 24.3839C90.4177 22.2531 90.5941 22.1456 90.5941 21.5006C90.5941 21.1312 90.3543 20.8776 89.3895 20.8776C87.143 20.8776 86.4483 22.7796 86.3408 24.9655C86.3072 25.7955 86.1777 26.6187 85.9549 27.4188C85.015 30.7707 83.0799 33.3122 81.8202 33.3122C81.2358 33.3122 81.0759 32.7279 81.0759 31.9616C81.0759 29.5496 82.4266 26.5368 82.4266 23.9677C82.4266 22.0767 81.5997 20.8832 80.0367 20.8832C78.1982 20.8832 75.7642 23.0718 73.4625 27.1735C74.2206 24.0338 74.532 20.9934 72.2882 20.9934C71.802 21.0004 71.3246 21.1243 70.8962 21.3545C70.7522 21.4218 70.6318 21.5309 70.5507 21.6675C70.4695 21.8042 70.4314 21.9622 70.4414 22.1208C70.6564 25.4645 67.7483 34.0262 64.9891 34.0262C64.4874 34.0262 64.2448 33.4749 64.2448 32.6066C64.2448 30.1891 65.6837 25.0896 66.4087 22.7521C66.4947 22.4967 66.5429 22.2302 66.552 21.961C66.552 21.3214 66.1551 20.9934 65.2592 20.9934C64.2751 20.9934 63.2056 21.3683 62.1747 23.1821C61.8136 21.5833 60.7303 20.8832 59.2197 20.8832C56.7389 20.8832 53.9824 23.5046 52.753 26.9227C51.1239 31.4847 47.8409 35.8923 43.4195 35.8923C39.4088 35.8923 37.2919 32.5542 37.2919 27.281C37.2919 19.6648 42.882 13.4433 47.0278 13.4433C49.0097 13.4433 49.9579 14.7058 49.9579 16.6436C49.9579 18.9894 48.6486 20.0782 48.6486 20.9714C48.6486 21.247 48.8746 21.5227 49.3267 21.5227C51.1294 21.5227 53.2492 19.4057 53.2492 16.5168C53.2492 13.628 50.8979 11.5 46.7494 11.5C39.8967 11.5 33 18.3913 33 27.2314C33 34.2605 36.4677 38.5 42.4658 38.5C46.5564 38.5 50.1316 35.319 52.0584 31.6087C52.2761 34.685 53.6737 36.2948 55.8044 36.2948C57.6982 36.2948 59.2308 35.1674 60.4023 33.1827C60.8516 35.2583 62.0562 36.2727 63.6025 36.2727C65.3832 36.2727 66.8745 35.1453 68.2886 33.0476C68.2665 34.7015 68.6414 36.2424 70.0693 36.2424C70.7419 36.2424 71.5468 36.0853 71.6901 35.4982C73.1924 29.285 76.9054 24.213 78.03 24.213C78.3663 24.213 78.46 24.5383 78.46 24.9214C78.46 26.6084 77.2692 30.0706 77.2692 32.2786C77.2692 34.6657 78.2836 36.2452 80.3813 36.2452C82.705 36.2452 85.0673 33.4005 86.6413 29.2409C87.1347 33.1276 88.1987 36.2617 89.8664 36.2617C91.9117 36.2617 95.5448 31.956 97.7472 27.3968C98.9423 27.5727 100.16 27.2869 101.151 26.5974C100.606 27.9593 100.321 29.4113 100.311 30.8782C100.311 35.1095 102.331 36.2948 104.071 36.2948C105.962 36.2948 107.494 35.1674 108.668 33.1827C109.054 34.9717 110.047 36.2672 111.863 36.2672C114.708 36.2672 117.18 33.3591 117.18 30.972C117.191 30.3435 116.921 29.9686 116.607 29.9686ZM57.5438 33.9518C56.3943 33.9518 55.945 32.794 55.945 31.0684C55.945 28.0721 57.9959 23.0746 60.1625 23.0746C61.1107 23.0746 61.4663 24.1772 61.4663 25.5554C61.4663 28.5903 59.5174 33.9518 57.5438 33.9518ZM96.9065 25.0069C96.2682 24.1715 95.9381 23.1413 95.972 22.0905C95.972 20.8694 96.4186 19.8384 96.9533 19.8384C97.4881 19.8384 97.6535 20.3649 97.6535 21.0982C97.6507 22.3221 97.2124 24.111 96.9065 25.0069ZM105.818 33.9518C104.669 33.9518 104.219 32.6204 104.219 31.0684C104.219 28.1769 106.27 23.0746 108.453 23.0746C109.402 23.0746 109.738 24.1772 109.738 25.5554C109.738 28.5903 107.822 33.9518 105.818 33.9518Z" fill="url(#paint3_radial_8_541)"/>
<path d="M116.607 29.9686C116.528 29.9719 116.452 30.0005 116.391 30.0501C116.329 30.0997 116.285 30.1678 116.265 30.2443C115.402 32.7058 114.237 34.1723 113.277 34.1723C112.726 34.1723 112.503 33.5576 112.503 32.5928C112.503 30.1809 113.947 25.0675 114.675 22.7355C114.755 22.4932 114.802 22.2409 114.813 21.9858C114.813 21.3077 114.443 20.9741 113.525 20.9741C112.536 20.9741 111.472 21.36 110.435 23.1793C110.077 21.5805 108.996 20.8804 107.483 20.8804C105.735 20.8804 104.049 22.0051 102.659 23.8271C101.27 25.6492 99.6271 26.2473 98.4088 25.9524C99.2936 23.7885 99.6216 22.1732 99.6216 20.9714C99.6216 19.0887 98.6927 17.953 97.1876 17.953C94.9025 17.953 93.5849 20.1334 93.5849 22.4268C93.5849 24.1992 94.3898 26.0103 96.1567 26.9061C94.6737 30.258 92.5126 33.2874 91.6912 33.2874C90.6299 33.2874 90.3129 28.0969 90.3791 24.3839C90.4177 22.2531 90.5941 22.1456 90.5941 21.5006C90.5941 21.1312 90.3543 20.8776 89.3895 20.8776C87.143 20.8776 86.4483 22.7796 86.3408 24.9655C86.3072 25.7955 86.1777 26.6187 85.9549 27.4188C85.015 30.7707 83.0799 33.3122 81.8202 33.3122C81.2358 33.3122 81.0759 32.7279 81.0759 31.9616C81.0759 29.5496 82.4266 26.5368 82.4266 23.9677C82.4266 22.0767 81.5997 20.8832 80.0367 20.8832C78.1982 20.8832 75.7642 23.0718 73.4625 27.1735C74.2206 24.0338 74.532 20.9934 72.2882 20.9934C71.802 21.0004 71.3246 21.1243 70.8962 21.3545C70.7522 21.4218 70.6318 21.5309 70.5507 21.6675C70.4695 21.8042 70.4314 21.9622 70.4414 22.1208C70.6564 25.4645 67.7483 34.0262 64.9891 34.0262C64.4874 34.0262 64.2448 33.4749 64.2448 32.6066C64.2448 30.1891 65.6837 25.0896 66.4087 22.7521C66.4947 22.4967 66.5429 22.2302 66.552 21.961C66.552 21.3214 66.1551 20.9934 65.2592 20.9934C64.2751 20.9934 63.2056 21.3683 62.1747 23.1821C61.8136 21.5833 60.7303 20.8832 59.2197 20.8832C56.7389 20.8832 53.9824 23.5046 52.753 26.9227C51.1239 31.4847 47.8409 35.8923 43.4195 35.8923C39.4088 35.8923 37.2919 32.5542 37.2919 27.281C37.2919 19.6648 42.882 13.4433 47.0278 13.4433C49.0097 13.4433 49.9579 14.7058 49.9579 16.6436C49.9579 18.9894 48.6486 20.0782 48.6486 20.9714C48.6486 21.247 48.8746 21.5227 49.3267 21.5227C51.1294 21.5227 53.2492 19.4057 53.2492 16.5168C53.2492 13.628 50.8979 11.5 46.7494 11.5C39.8967 11.5 33 18.3913 33 27.2314C33 34.2605 36.4677 38.5 42.4658 38.5C46.5564 38.5 50.1316 35.319 52.0584 31.6087C52.2761 34.685 53.6737 36.2948 55.8044 36.2948C57.6982 36.2948 59.2308 35.1674 60.4023 33.1827C60.8516 35.2583 62.0562 36.2727 63.6025 36.2727C65.3832 36.2727 66.8745 35.1453 68.2886 33.0476C68.2665 34.7015 68.6414 36.2424 70.0693 36.2424C70.7419 36.2424 71.5468 36.0853 71.6901 35.4982C73.1924 29.285 76.9054 24.213 78.03 24.213C78.3663 24.213 78.46 24.5383 78.46 24.9214C78.46 26.6084 77.2692 30.0706 77.2692 32.2786C77.2692 34.6657 78.2836 36.2452 80.3813 36.2452C82.705 36.2452 85.0673 33.4005 86.6413 29.2409C87.1347 33.1276 88.1987 36.2617 89.8664 36.2617C91.9117 36.2617 95.5448 31.956 97.7472 27.3968C98.9423 27.5727 100.16 27.2869 101.151 26.5974C100.606 27.9593 100.321 29.4113 100.311 30.8782C100.311 35.1095 102.331 36.2948 104.071 36.2948C105.962 36.2948 107.494 35.1674 108.668 33.1827C109.054 34.9717 110.047 36.2672 111.863 36.2672C114.708 36.2672 117.18 33.3591 117.18 30.972C117.191 30.3435 116.921 29.9686 116.607 29.9686ZM57.5438 33.9518C56.3943 33.9518 55.945 32.794 55.945 31.0684C55.945 28.0721 57.9959 23.0746 60.1625 23.0746C61.1107 23.0746 61.4663 24.1772 61.4663 25.5554C61.4663 28.5903 59.5174 33.9518 57.5438 33.9518ZM96.9065 25.0069C96.2682 24.1715 95.9381 23.1413 95.972 22.0905C95.972 20.8694 96.4186 19.8384 96.9533 19.8384C97.4881 19.8384 97.6535 20.3649 97.6535 21.0982C97.6507 22.3221 97.2124 24.111 96.9065 25.0069ZM105.818 33.9518C104.669 33.9518 104.219 32.6204 104.219 31.0684C104.219 28.1769 106.27 23.0746 108.453 23.0746C109.402 23.0746 109.738 24.1772 109.738 25.5554C109.738 28.5903 107.822 33.9518 105.818 33.9518Z" fill="url(#paint4_radial_8_541)"/>
<path d="M116.607 29.9686C116.528 29.9719 116.452 30.0005 116.391 30.0501C116.329 30.0997 116.285 30.1678 116.265 30.2443C115.402 32.7058 114.237 34.1723 113.277 34.1723C112.726 34.1723 112.503 33.5576 112.503 32.5928C112.503 30.1809 113.947 25.0675 114.675 22.7355C114.755 22.4932 114.802 22.2409 114.813 21.9858C114.813 21.3077 114.443 20.9741 113.525 20.9741C112.536 20.9741 111.472 21.36 110.435 23.1793C110.077 21.5805 108.996 20.8804 107.483 20.8804C105.735 20.8804 104.049 22.0051 102.659 23.8271C101.27 25.6492 99.6271 26.2473 98.4088 25.9524C99.2936 23.7885 99.6216 22.1732 99.6216 20.9714C99.6216 19.0887 98.6927 17.953 97.1876 17.953C94.9025 17.953 93.5849 20.1334 93.5849 22.4268C93.5849 24.1992 94.3898 26.0103 96.1567 26.9061C94.6737 30.258 92.5126 33.2874 91.6912 33.2874C90.6299 33.2874 90.3129 28.0969 90.3791 24.3839C90.4177 22.2531 90.5941 22.1456 90.5941 21.5006C90.5941 21.1312 90.3543 20.8776 89.3895 20.8776C87.143 20.8776 86.4483 22.7796 86.3408 24.9655C86.3072 25.7955 86.1777 26.6187 85.9549 27.4188C85.015 30.7707 83.0799 33.3122 81.8202 33.3122C81.2358 33.3122 81.0759 32.7279 81.0759 31.9616C81.0759 29.5496 82.4266 26.5368 82.4266 23.9677C82.4266 22.0767 81.5997 20.8832 80.0367 20.8832C78.1982 20.8832 75.7642 23.0718 73.4625 27.1735C74.2206 24.0338 74.532 20.9934 72.2882 20.9934C71.802 21.0004 71.3246 21.1243 70.8962 21.3545C70.7522 21.4218 70.6318 21.5309 70.5507 21.6675C70.4695 21.8042 70.4314 21.9622 70.4414 22.1208C70.6564 25.4645 67.7483 34.0262 64.9891 34.0262C64.4874 34.0262 64.2448 33.4749 64.2448 32.6066C64.2448 30.1891 65.6837 25.0896 66.4087 22.7521C66.4947 22.4967 66.5429 22.2302 66.552 21.961C66.552 21.3214 66.1551 20.9934 65.2592 20.9934C64.2751 20.9934 63.2056 21.3683 62.1747 23.1821C61.8136 21.5833 60.7303 20.8832 59.2197 20.8832C56.7389 20.8832 53.9824 23.5046 52.753 26.9227C51.1239 31.4847 47.8409 35.8923 43.4195 35.8923C39.4088 35.8923 37.2919 32.5542 37.2919 27.281C37.2919 19.6648 42.882 13.4433 47.0278 13.4433C49.0097 13.4433 49.9579 14.7058 49.9579 16.6436C49.9579 18.9894 48.6486 20.0782 48.6486 20.9714C48.6486 21.247 48.8746 21.5227 49.3267 21.5227C51.1294 21.5227 53.2492 19.4057 53.2492 16.5168C53.2492 13.628 50.8979 11.5 46.7494 11.5C39.8967 11.5 33 18.3913 33 27.2314C33 34.2605 36.4677 38.5 42.4658 38.5C46.5564 38.5 50.1316 35.319 52.0584 31.6087C52.2761 34.685 53.6737 36.2948 55.8044 36.2948C57.6982 36.2948 59.2308 35.1674 60.4023 33.1827C60.8516 35.2583 62.0562 36.2727 63.6025 36.2727C65.3832 36.2727 66.8745 35.1453 68.2886 33.0476C68.2665 34.7015 68.6414 36.2424 70.0693 36.2424C70.7419 36.2424 71.5468 36.0853 71.6901 35.4982C73.1924 29.285 76.9054 24.213 78.03 24.213C78.3663 24.213 78.46 24.5383 78.46 24.9214C78.46 26.6084 77.2692 30.0706 77.2692 32.2786C77.2692 34.6657 78.2836 36.2452 80.3813 36.2452C82.705 36.2452 85.0673 33.4005 86.6413 29.2409C87.1347 33.1276 88.1987 36.2617 89.8664 36.2617C91.9117 36.2617 95.5448 31.956 97.7472 27.3968C98.9423 27.5727 100.16 27.2869 101.151 26.5974C100.606 27.9593 100.321 29.4113 100.311 30.8782C100.311 35.1095 102.331 36.2948 104.071 36.2948C105.962 36.2948 107.494 35.1674 108.668 33.1827C109.054 34.9717 110.047 36.2672 111.863 36.2672C114.708 36.2672 117.18 33.3591 117.18 30.972C117.191 30.3435 116.921 29.9686 116.607 29.9686ZM57.5438 33.9518C56.3943 33.9518 55.945 32.794 55.945 31.0684C55.945 28.0721 57.9959 23.0746 60.1625 23.0746C61.1107 23.0746 61.4663 24.1772 61.4663 25.5554C61.4663 28.5903 59.5174 33.9518 57.5438 33.9518ZM96.9065 25.0069C96.2682 24.1715 95.9381 23.1413 95.972 22.0905C95.972 20.8694 96.4186 19.8384 96.9533 19.8384C97.4881 19.8384 97.6535 20.3649 97.6535 21.0982C97.6507 22.3221 97.2124 24.111 96.9065 25.0069ZM105.818 33.9518C104.669 33.9518 104.219 32.6204 104.219 31.0684C104.219 28.1769 106.27 23.0746 108.453 23.0746C109.402 23.0746 109.738 24.1772 109.738 25.5554C109.738 28.5903 107.822 33.9518 105.818 33.9518Z" fill="url(#paint5_radial_8_541)"/>
<defs>
<linearGradient id="paint0_linear_8_541" x1="116.276" y1="38.9741" x2="46.2311" y2="22.303" gradientUnits="userSpaceOnUse">
<stop stop-color="#7D2AE7"/>
<stop offset="0.77" stop-color="#7D2AE7"/>
<stop offset="1" stop-color="#7D2AE7" stop-opacity="0"/>
</linearGradient>
<radialGradient id="paint1_radial_8_541" cx="0" cy="0" r="1" gradientTransform="matrix(17.3659 -17.8622 -11.8708 -11.5414 76.1925 39.674)" gradientUnits="userSpaceOnUse">
<stop stop-color="#6420FF"/>
<stop offset="1" stop-color="#6420FF" stop-opacity="0"/>
</radialGradient>
<radialGradient id="paint2_radial_8_541" cx="0" cy="0" r="1" gradientTransform="matrix(48.2937 4.30015 3.42728 -38.4913 35.7286 30.678)" gradientUnits="userSpaceOnUse">
<stop offset="0.25" stop-color="#00C4CC"/>
<stop offset="1" stop-color="#00C4CC" stop-opacity="0"/>
</radialGradient>
<radialGradient id="paint3_radial_8_541" cx="0" cy="0" r="1" gradientTransform="matrix(24.3329 -19.5988 -13.4011 -16.6383 67.4209 37.6019)" gradientUnits="userSpaceOnUse">
<stop stop-color="#6420FF"/>
<stop offset="1" stop-color="#6420FF" stop-opacity="0"/>
</radialGradient>
<radialGradient id="paint4_radial_8_541" cx="0" cy="0" r="1" gradientTransform="matrix(30.1009 -20.5084 -14.023 -20.582 37.1127 43.6326)" gradientUnits="userSpaceOnUse">
<stop stop-color="#6420FF"/>
<stop offset="1" stop-color="#6420FF" stop-opacity="0"/>
</radialGradient>
<radialGradient id="paint5_radial_8_541" cx="0" cy="0" r="1" gradientTransform="matrix(70.2905 15.5467 19.0673 -86.209 40.8462 15.1073)" gradientUnits="userSpaceOnUse">
<stop stop-color="#00C4CC"/>
<stop offset="1" stop-color="#00C4CC" stop-opacity="0"/>
</radialGradient>
</defs>
</svg>
