<svg width="152" height="52" viewBox="0 0 152 52" fill="none" xmlns="http://www.w3.org/2000/svg">
<rect x="1" y="1" width="150" height="50" rx="8" fill="white"/>
<rect x="1" y="1" width="150" height="50" rx="8" stroke="#EBEFF6"/>
<path d="M70.3532 30.8848C70.3532 35.0489 67.0957 38.1174 63.0979 38.1174C59.1001 38.1174 55.8426 35.0489 55.8426 30.8848C55.8426 26.6913 59.1001 23.6522 63.0979 23.6522C67.0957 23.6522 70.3532 26.6913 70.3532 30.8848ZM67.1772 30.8848C67.1772 28.2826 65.2892 26.5022 63.0979 26.5022C60.9066 26.5022 59.0186 28.2826 59.0186 30.8848C59.0186 33.4609 60.9066 35.2674 63.0979 35.2674C65.2892 35.2674 67.1772 33.4576 67.1772 30.8848Z" fill="#EA4335"/>
<path d="M86.007 30.8848C86.007 35.0489 82.7494 38.1174 78.7516 38.1174C74.7538 38.1174 71.4963 35.0489 71.4963 30.8848C71.4963 26.6946 74.7538 23.6522 78.7516 23.6522C82.7494 23.6522 86.007 26.6913 86.007 30.8848ZM82.8309 30.8848C82.8309 28.2826 80.9429 26.5022 78.7516 26.5022C76.5603 26.5022 74.6723 28.2826 74.6723 30.8848C74.6723 33.4609 76.5603 35.2674 78.7516 35.2674C80.9429 35.2674 82.8309 33.4576 82.8309 30.8848Z" fill="#FBBC05"/>
<path d="M101.006 24.0891V37.0739C101.006 42.4152 97.8557 44.5967 94.1318 44.5967C90.6264 44.5967 88.5167 42.2522 87.721 40.3348L90.4862 39.1837C90.9786 40.3609 92.1851 41.75 94.1286 41.75C96.5122 41.75 97.9894 40.2793 97.9894 37.5109V36.4707H97.8785C97.1676 37.3478 95.7981 38.1141 94.0699 38.1141C90.4536 38.1141 87.1406 34.9641 87.1406 30.9109C87.1406 26.8283 90.4536 23.6522 94.0699 23.6522C95.7948 23.6522 97.1644 24.4185 97.8785 25.2696H97.9894V24.0924H101.006V24.0891ZM98.2144 30.9109C98.2144 28.3641 96.5155 26.5022 94.3536 26.5022C92.1623 26.5022 90.3264 28.3641 90.3264 30.9109C90.3264 33.4315 92.1623 35.2674 94.3536 35.2674C96.5155 35.2674 98.2144 33.4315 98.2144 30.9109Z" fill="#4285F4"/>
<path d="M105.979 16.4785V37.6742H102.881V16.4785H105.979Z" fill="#34A853"/>
<path d="M118.051 33.265L120.516 34.9084C119.72 36.0856 117.803 38.1139 114.49 38.1139C110.381 38.1139 107.313 34.9378 107.313 30.8813C107.313 26.5802 110.408 23.6487 114.135 23.6487C117.888 23.6487 119.724 26.6356 120.324 28.2497L120.653 29.0715L110.985 33.0758C111.725 34.5269 112.876 35.2671 114.49 35.2671C116.107 35.2671 117.229 34.4715 118.051 33.265ZM110.463 30.6628L116.926 27.9791C116.57 27.0758 115.501 26.4465 114.242 26.4465C112.628 26.4465 110.381 27.8715 110.463 30.6628Z" fill="#EA4335"/>
<path d="M44.1165 29.003V25.9345H54.4566C54.5577 26.4693 54.6099 27.1019 54.6099 27.7866C54.6099 30.0888 53.9805 32.9356 51.9523 34.9638C49.9795 37.0182 47.4589 38.1138 44.1198 38.1138C37.9307 38.1138 32.7264 33.0725 32.7264 26.8834C32.7264 20.6943 37.9307 15.653 44.1198 15.653C47.5436 15.653 49.9827 16.9964 51.8153 18.7475L49.6501 20.9127C48.336 19.6801 46.5556 18.7214 44.1165 18.7214C39.597 18.7214 36.0623 22.3638 36.0623 26.8834C36.0623 31.403 39.597 35.0453 44.1165 35.0453C47.048 35.0453 48.7175 33.8682 49.7871 32.7986C50.6545 31.9312 51.2251 30.6921 51.4501 28.9997L44.1165 29.003Z" fill="#4285F4"/>
</svg>
