<svg width="150" height="50" viewBox="0 0 150 50" fill="none" xmlns="http://www.w3.org/2000/svg">
<rect x="0.5" y="0.5" width="149" height="49" rx="7.5" fill="white"/>
<rect x="0.5" y="0.5" width="149" height="49" rx="7.5" stroke="#EBEFF6"/>
<path fill-rule="evenodd" clip-rule="evenodd" d="M57.2643 29.0295L57.2432 28.7471H56.9599H55.2018H54.8838L54.8968 29.0648C55.0419 32.6047 57.4284 34.9494 61.6728 34.9494C65.7208 34.9494 68.4734 32.8462 68.4734 29.6628C68.4734 27.9414 67.8762 26.7232 66.7382 25.8913C65.8628 25.2513 64.8161 24.8906 63.0805 24.5143C62.9645 24.4892 62.8436 24.4634 62.6988 24.4329C62.6128 24.4148 62.3042 24.3502 62.3205 24.3537C59.1685 23.6929 58.1687 23.1188 58.1687 21.4093C58.1687 19.6414 59.6144 18.5157 62.039 18.5157C64.3981 18.5157 65.889 19.9564 65.9584 22.2244L65.9675 22.5203H66.2635H67.9972H68.3096L68.3024 22.208C68.2208 18.6728 65.8488 16.2936 62.0146 16.2936C58.2568 16.2936 55.7756 18.5547 55.7756 21.4825C55.7756 23.199 56.3722 24.3944 57.512 25.1931C58.3803 25.8015 59.3862 26.124 61.1606 26.4823C61.2437 26.4991 61.3304 26.5164 61.4336 26.5369C61.4975 26.5495 61.5697 26.5638 61.7051 26.5906C63.384 26.9228 64.1248 27.1278 64.8006 27.5208C65.6396 28.0086 66.0559 28.7054 66.0559 29.7848C66.0559 31.6589 64.4802 32.7273 61.7216 32.7273C59.0807 32.7273 57.4418 31.4029 57.2643 29.0295ZM73.4182 15.9883V15.6831H73.113H71.3792H71.074V15.9883V34.3023V34.6075H71.3792H73.113H73.4182V34.3023V31.0369L75.8858 28.6337L80.2924 34.4859L80.384 34.6075H80.5363H82.6851H83.3001L82.9282 34.1177L77.5466 27.0292L82.5098 22.0896L83.0338 21.568H82.2944H79.9747H79.8476L79.7581 21.6582L73.4182 28.0431V15.9883ZM95.3219 28.8936H95.6086L95.6265 28.6074C95.6296 28.557 95.6343 28.4738 95.639 28.3736C95.6427 28.2942 95.6457 28.2169 95.6479 28.1438C95.6502 28.0646 95.6515 27.9925 95.6515 27.929C95.6515 24.0978 93.1139 21.275 89.3637 21.275C85.6205 21.275 82.9537 24.2798 82.9537 28.0755C82.9537 31.9814 85.4996 34.9005 89.3881 34.9005C92.3283 34.9005 94.5997 33.156 95.4181 30.5099L95.5404 30.1145H95.1265H93.3195H93.1039L93.0319 30.3177C92.5179 31.766 91.1265 32.7273 89.4125 32.7273C87.1717 32.7273 85.6096 31.1884 85.3282 28.8936H95.3219ZM85.3992 26.8668C85.7949 24.8121 87.3061 23.4482 89.3637 23.4482C91.4844 23.4482 92.9479 24.7673 93.2681 26.8668H85.3992ZM103.343 23.6436H103.649V23.3383V21.8732V21.568H103.343H100.792V18.3325V18.0273H100.486H98.7527H98.4475V18.3325V21.568H96.3841H96.0788V21.8732V23.3383V23.6436H96.3841H98.4475V30.9569C98.4475 33.3561 99.6918 34.6564 101.976 34.6564C102.375 34.6564 102.718 34.6325 103.007 34.5924C103.185 34.5676 103.308 34.542 103.376 34.5231L103.6 34.461V34.229V32.6662V32.2875L103.23 32.368C103.215 32.3712 103.185 32.3773 103.142 32.3853C103.07 32.3989 102.989 32.4126 102.902 32.4253C102.68 32.4579 102.46 32.4789 102.257 32.4825C102.237 32.4829 102.216 32.4831 102.196 32.4831C101.195 32.4831 100.792 32.0131 100.792 30.8348V23.6436H103.343ZM110.632 34.9005C113.877 34.9005 116.168 32.8473 116.744 29.9418L116.816 29.5773H116.444H114.686H114.451L114.391 29.8041C113.898 31.6583 112.56 32.7273 110.632 32.7273C108.227 32.7273 106.567 30.8294 106.567 28.1C106.567 25.3494 108.224 23.4482 110.632 23.4482C112.56 23.4482 113.898 24.5172 114.391 26.3714L114.451 26.5982H114.686H116.444H116.816L116.744 26.2337C116.168 23.3282 113.877 21.275 110.632 21.275C106.863 21.275 104.198 24.3011 104.198 28.1C104.198 31.878 106.867 34.9005 110.632 34.9005ZM121.133 15.9883V15.6831H120.827H119.094H118.788V15.9883V34.3023V34.6075H119.094H120.827H121.133V34.3023V26.9523C121.133 24.7129 122.496 23.3994 124.563 23.3994C126.538 23.3994 127.53 24.5427 127.53 26.7081V34.3023V34.6075H127.835H129.569H129.874V34.3023V26.3662C129.874 23.3074 127.98 21.275 124.856 21.275C123.249 21.275 121.957 21.8638 121.133 22.7089V15.9883Z" fill="#000008"/>
<path fill-rule="evenodd" clip-rule="evenodd" d="M26.0766 13.3231L33.9255 12.5L41.7744 13.3231L47.8509 21.4146L33.9255 37.5L20 21.4146L26.0766 13.3231Z" fill="#FDB300"/>
<path fill-rule="evenodd" clip-rule="evenodd" d="M25.6406 21.4145L33.9255 37.5L20 21.4146L25.6406 21.4145Z" fill="#EA6C00"/>
<path fill-rule="evenodd" clip-rule="evenodd" d="M42.2101 21.4145L33.9255 37.5L47.8509 21.4146L42.2101 21.4145Z" fill="#EA6C00"/>
<path fill-rule="evenodd" clip-rule="evenodd" d="M25.6416 21.4145H42.2115L33.9265 37.5L25.6416 21.4145Z" fill="#FDAD00"/>
<path fill-rule="evenodd" clip-rule="evenodd" d="M33.9263 12.5L26.0774 13.323L25.6416 21.4145L33.9263 12.5Z" fill="#FDD231"/>
<path fill-rule="evenodd" clip-rule="evenodd" d="M33.9263 12.5L41.7752 13.323L42.2115 21.4145L33.9263 12.5Z" fill="#FDD231"/>
<path fill-rule="evenodd" clip-rule="evenodd" d="M47.8504 21.4145L41.7744 13.3231L42.2101 21.4145L47.8504 21.4145Z" fill="#FDAD00"/>
<path fill-rule="evenodd" clip-rule="evenodd" d="M20 21.4146L26.0766 13.3231L25.6406 21.4145L20 21.4146Z" fill="#FDAD00"/>
<path fill-rule="evenodd" clip-rule="evenodd" d="M33.9263 12.5L25.6416 21.4145H42.2115L33.9263 12.5Z" fill="#FEEEB7"/>
</svg>
